<svg xmlns="http://www.w3.org/2000/svg" version="1.1" xmlns:xlink="http://www.w3.org/1999/xlink" xmlns:svgjs="http://svgjs.dev/svgjs" width="2000" height="4258" viewBox="0 0 2000 4258"><g transform="matrix(1,0,0,1,-3.8965517241379075,1.7238866396760386)"><svg viewBox="0 0 116 247" data-background-color="#03192e" preserveAspectRatio="xMidYMid meet" height="4258" width="2000" xmlns="http://www.w3.org/2000/svg" xmlns:xlink="http://www.w3.org/1999/xlink"><g id="tight-bounds" transform="matrix(1,0,0,1,0.2259999999999991,-0.09999999999999432)"><svg viewBox="0 0 115.54799113779693 247.2" height="247.2" width="115.54799113779693"><g><svg></svg></g><g><svg viewBox="0 0 115.54799113779693 247.2" height="247.2" width="115.54799113779693"><g transform="matrix(1,0,0,1,0,47.215199999999996)"><svg viewBox="0 0 115.54799113779693 152.7696" height="152.7696" width="115.54799113779693"><g><svg viewBox="0 0 115.54799113779693 152.7696" height="152.7696" width="115.54799113779693"><g><svg viewBox="0 0 115.54799113779693 152.7696" height="152.7696" width="115.54799113779693"><g><svg viewBox="0 0 115.54799113779693 152.7696" height="152.7696" width="115.54799113779693"><g id="textblocktransform"><svg viewBox="0 0 115.54799113779693 152.7696" height="152.7696" width="115.54799113779693" id="textblock"><g><svg viewBox="0 0 115.54799113779693 152.7696" height="152.7696" width="115.54799113779693"><g transform="matrix(1,0,0,1,0,0)"><svg width="115.54799113779693" viewBox="3.35 -29.95 23.106633317490495 30.55" height="152.7696" data-palette-color="#ffffff"><g transform="matrix(1,0,0,1,0,0)"><g><svg width="6.171088878326997" viewBox="2.52 -36.86 32.9 37.36" height="7.007000000000001" data-palette-color="#ffffff" id="scriptelement" x="20.2855444391635" y="-7.007000000000001"><path d="M35.09-24.61L27.27-24.61Q26.9-25.91 26.23-26.91 25.55-27.91 24.58-28.61 23.62-29.31 22.38-29.69 21.15-30.06 19.66-30.06L19.66-30.06Q16.87-30.06 14.76-28.68 12.66-27.29 11.49-24.65 10.32-22.02 10.32-18.22L10.32-18.22Q10.32-14.42 11.47-11.75 12.62-9.09 14.74-7.7 16.85-6.3 19.73-6.3L19.73-6.3Q22.34-6.3 24.19-7.24 26.05-8.17 27.03-9.87 28.02-11.58 28.02-13.9L28.02-13.9 29.58-13.67 20.21-13.67 20.21-19.46 35.42-19.46 35.42-14.88Q35.42-10.09 33.4-6.65 31.37-3.21 27.82-1.36 24.27 0.5 19.69 0.5L19.69 0.5Q14.58 0.5 10.71-1.77 6.84-4.03 4.68-8.21 2.52-12.39 2.52-18.15L2.52-18.15Q2.52-22.57 3.81-26.04 5.1-29.51 7.42-31.92 9.75-34.34 12.84-35.6 15.93-36.86 19.53-36.86L19.53-36.86Q22.62-36.86 25.28-35.96 27.95-35.07 30.02-33.43 32.08-31.8 33.4-29.55 34.71-27.31 35.09-24.61L35.09-24.61Z" opacity="1" transform="matrix(1,0,0,1,0,0)" fill="#ffffff" class="undefined-123" data-fill-palette-color="primary" id="yy-123"></path></svg></g></g><path d="M10.3 0.6L10.3 0.6Q8.4 0.6 6.83 0.18 5.25-0.25 4.3-1.65 3.35-3.05 3.35-5.9L3.35-5.9 3.35-23.45Q3.35-26.35 4.3-27.73 5.25-29.1 6.88-29.53 8.5-29.95 10.45-29.95L10.45-29.95Q12.45-29.95 13.95-29.5 15.45-29.05 16.32-27.68 17.2-26.3 17.2-23.45L17.2-23.45 17.2-20.05 16.4-20.05 16.4-23.4Q16.4-25.85 15.7-27.08 15-28.3 13.65-28.73 12.3-29.15 10.35-29.15L10.35-29.15Q8.45-29.15 7.05-28.73 5.65-28.3 4.9-27.08 4.15-25.85 4.15-23.4L4.15-23.4 4.15-6.25Q4.15-3.6 4.98-2.3 5.8-1 7.23-0.6 8.65-0.2 10.35-0.2L10.35-0.2Q12.9-0.2 14.65-1.8 16.4-3.4 16.4-6.25L16.4-6.25 16.4-12.8 11.05-12.8 11.05-13.55 17.2-13.55 17.2 0 16.4 0 16.4-3.15Q16-1.8 14.3-0.6 12.6 0.6 10.3 0.6Z" opacity="1" transform="matrix(1,0,0,1,0,0)" fill="#ffffff" class="wordmark-text-0" data-fill-palette-color="primary" id="text-0"></path></svg></g></svg></g></svg></g></svg></g><g></g></svg></g></svg></g></svg></g><path d="M0 41.215L0 1 115.548 1 115.548 41.215 101.771 41.215 101.771 14.777 13.777 14.777 13.777 41.215 0 41.215M0 205.985L0 246.2 115.548 246.2 115.548 205.985 101.771 205.985 101.771 232.423 13.777 232.423 13.777 205.985 0 205.985" fill="#890ec5" stroke="transparent" data-fill-palette-color="tertiary"></path></svg></g><defs></defs></svg><rect width="115.54799113779693" height="247.2" fill="none" stroke="none" visibility="hidden"></rect></g></svg></g></svg>